<svg xmlns="http://www.w3.org/2000/svg" viewBox="0 0 130 130">
  <rect width="130" height="130" rx="10" fill="#e2136e"/>
  <path d="M59.62,78.66v-3.8c-5,5.51-9.26,7.62-15.13,7.62-7,0-13.38-5-13.38-14.65,0-9.26,5.32-14.28,15.51-14.28A42.88,42.88,0,0,1,59.62,55V50.76c0-5.69-3.59-8-10.19-8a32.78,32.78,0,0,0-15.5,4.18V37.58a45.27,45.27,0,0,1,16.83-3.2c12.27,0,18.92,5.51,18.92,16.45V78.66Zm0-13.39V63.53a22.64,22.64,0,0,0-7.8-1.33c-5.32,0-7.06,2.65-7.06,6.83s2.09,6.45,6.46,6.45C54.3,75.48,56.77,73.71,59.62,65.27Z" fill="#fff"/>
  <path d="M92.45,60.5c0-5.7-1.91-8.72-6.28-8.72s-8.53,4.17-8.53,13.75v13H67.52V41.38H77.64v5.32c2.85-4.18,6.62-6.32,11.75-6.32,8.35,0,13.1,5.13,13.1,15V78.48H92.45Z" fill="#fff"/>
</svg> 