<svg xmlns="http://www.w3.org/2000/svg" viewBox="0 0 130 130">
  <rect width="130" height="130" rx="10" fill="#8c3494"/>
  <path d="M41.27,63.87a15.31,15.31,0,0,1,2.68-9A14.91,14.91,0,0,1,52.31,49a15.87,15.87,0,0,1,10.88.57A15.45,15.45,0,0,1,71.45,58a15.22,15.22,0,0,1-2.69,15.36,14.88,14.88,0,0,1-8.37,4.74,15.73,15.73,0,0,1-10.88-.57A15.4,15.4,0,0,1,41.27,69.1,15.18,15.18,0,0,1,41.27,63.87Z" fill="#fff"/>
  <path d="M85.43,42.68h5.54a1.36,1.36,0,0,1,1.35,1.36v6.25a1.36,1.36,0,0,1-1.35,1.36H85.43a1.37,1.37,0,0,1-1.36-1.36V44A1.37,1.37,0,0,1,85.43,42.68Z" fill="#fff"/>
  <path d="M76.9,78.35h7a.26.26,0,0,1,.22.4l-3.5,5.11a.25.25,0,0,1-.43,0l-3.5-5.11A.26.26,0,0,1,76.9,78.35Z" fill="#fff"/>
  <path d="M91.45,56.43H79.71a2.05,2.05,0,0,0-2,2.13v14c0,1.55,1.07,2.12,2,2.12h11.74c1,0,2-.57,2-2.12v-14A2.05,2.05,0,0,0,91.45,56.43Z" fill="#fff"/>
</svg> 