<svg xmlns="http://www.w3.org/2000/svg" viewBox="0 0 130 130">
  <rect width="130" height="130" rx="10" fill="#df4326"/>
  <path d="M27.67,59.11v3.88a2.12,2.12,0,0,0,2.13,2.12H100.2a2.13,2.13,0,0,0,2.13-2.12V59.11Z" fill="#fff"/>
  <path d="M46.1,52A8.84,8.84,0,0,1,48,43.79a9.16,9.16,0,0,1,12.75-2.17,8.81,8.81,0,0,1,3.69,4.95,8.65,8.65,0,0,1-.52,6.56,9,9,0,0,1-12.74,4A8.85,8.85,0,0,1,46.1,52Z" fill="#fff"/>
  <path d="M79.07,43.79A8.83,8.83,0,0,1,82,52a8.82,8.82,0,0,1-5.09,5.1,9,9,0,0,1-12.74-4,8.65,8.65,0,0,1-.52-6.56,8.78,8.78,0,0,1,3.69-4.95A9.16,9.16,0,0,1,79.07,43.79Z" fill="#fff"/>
  <path d="M80.93,80.09a8.83,8.83,0,0,1-8.24,5.69,8.85,8.85,0,0,1-8.25-5.69,8.63,8.63,0,0,1,0-6.55,8.82,8.82,0,0,1,5.09-5.1,9.19,9.19,0,0,1,6.31,0,8.82,8.82,0,0,1,5.09,5.1A8.63,8.63,0,0,1,80.93,80.09Z" fill="#fff"/>
  <path d="M57.51,80.09a8.86,8.86,0,0,1-8.25,5.69,8.85,8.85,0,0,1-8.25-5.69,8.63,8.63,0,0,1,0-6.55,8.79,8.79,0,0,1,5.09-5.1,9.21,9.21,0,0,1,6.32,0,8.79,8.79,0,0,1,5.09,5.1A8.63,8.63,0,0,1,57.51,80.09Z" fill="#fff"/>
</svg> 